<svg width="109" height="143" viewBox="0 0 109 143" fill="none" xmlns="http://www.w3.org/2000/svg">
<path d="M54.5 0L12.5201 41.5699C8.55072 45.5003 5.40206 50.1664 3.25386 55.3018C1.10566 60.4373 0 65.9414 0 71.4999C0 77.0585 1.10566 82.5626 3.25386 87.698C5.40206 92.8334 8.55072 97.4996 12.5201 101.43L54.5 143L96.4799 101.43C100.449 97.4996 103.598 92.8334 105.746 87.698C107.894 82.5626 109 77.0585 109 71.4999C109 65.9414 107.894 60.4373 105.746 55.3018C103.598 50.1664 100.449 45.5003 96.4799 41.5699L54.5 0ZM78.978 84.0993L54.5 108.338L30.022 84.0993C26.6525 80.7551 24.7601 76.2241 24.7601 71.5001C24.7601 66.7761 26.6525 62.245 30.022 58.9009L54.5 34.6622L78.978 58.9009C82.3475 62.245 84.2399 66.7761 84.2399 71.5001C84.2399 76.2241 82.3475 80.7551 78.978 84.0993Z" fill="#EEEEEE"/>
</svg>
