<svg width="16" height="21" viewBox="0 0 16 21" fill="none" xmlns="http://www.w3.org/2000/svg">
<path d="M8 0L1.83781 6.10466C1.25515 6.68186 0.792963 7.3671 0.477631 8.12125C0.162299 8.8754 0 9.6837 0 10.5C0 11.3163 0.162299 12.1246 0.477631 12.8787C0.792963 13.6329 1.25515 14.3181 1.83781 14.8953L8 21L14.1622 14.8953C14.7448 14.3181 15.207 13.6329 15.5224 12.8787C15.8377 12.1246 16 11.3163 16 10.5C16 9.6837 15.8377 8.8754 15.5224 8.12125C15.207 7.3671 14.7448 6.68186 14.1622 6.10466L8 0ZM11.5931 12.3502L8 15.9098L4.40691 12.3502C3.91229 11.8591 3.63451 11.1937 3.63451 10.5C3.63451 9.80628 3.91229 9.14087 4.40691 8.64978L8 5.09025L11.5931 8.64978C12.0877 9.14087 12.3655 9.80628 12.3655 10.5C12.3655 11.1937 12.0877 11.8591 11.5931 12.3502Z" fill="#1C97D9"/>
</svg>
