<svg width="184" height="243" viewBox="0 0 184 243" fill="none" xmlns="http://www.w3.org/2000/svg">
<path d="M92.3818 0L21.8107 70.5716C15.138 77.2441 9.8449 85.1657 6.23363 93.8839C2.62237 102.602 0.763672 111.946 0.763672 121.383C0.763672 130.819 2.62237 140.163 6.23363 148.882C9.8449 157.6 15.138 165.521 21.8107 172.194L92.3818 242.766L162.953 172.194C169.626 165.521 174.919 157.6 178.53 148.882C182.141 140.163 184 130.819 184 121.383C184 111.946 182.141 102.602 178.53 93.8839C174.919 85.1657 169.626 77.2441 162.953 70.5716L92.3818 0ZM133.531 142.772L92.3818 183.921L51.2328 142.772C45.5683 137.095 42.3871 129.403 42.3871 121.383C42.3871 113.363 45.5683 105.671 51.2328 99.9938L92.3818 58.8447L133.531 99.9938C139.195 105.671 142.377 113.363 142.377 121.383C142.377 129.403 139.195 137.095 133.531 142.772Z" fill="#F8F8F8"/>
</svg>
