<svg width="25" height="33" viewBox="0 0 25 33" fill="none" xmlns="http://www.w3.org/2000/svg">
<path d="M12.5 0L2.87157 9.59304C1.96117 10.5001 1.239 11.5769 0.746299 12.762C0.253593 13.9471 0 15.2172 0 16.5C0 17.7827 0.253593 19.0529 0.746299 20.238C1.239 21.4231 1.96117 22.4999 2.87157 23.4069L12.5 33L22.1284 23.4069C23.0388 22.4999 23.761 21.4231 24.2537 20.238C24.7464 19.0529 25 17.7827 25 16.5C25 15.2172 24.7464 13.9471 24.2537 12.762C23.761 11.5769 23.0388 10.5001 22.1284 9.59304L12.5 0ZM18.1142 19.4075L12.5 25.0011L6.88579 19.4075C6.11295 18.6358 5.67892 17.5902 5.67892 16.5C5.67892 15.4099 6.11295 14.3642 6.88579 13.5925L12.5 7.99897L18.1142 13.5925C18.887 14.3642 19.3211 15.4099 19.3211 16.5C19.3211 17.5902 18.887 18.6358 18.1142 19.4075Z" fill="#1C97D9"/>
</svg>
