<svg width="81" height="53" viewBox="0 0 81 53" fill="none" xmlns="http://www.w3.org/2000/svg">
<path d="M79.529 45.1029H75.0751C74.5545 49.6044 70.7492 53 66.2274 53C61.7047 53 57.9004 49.6044 57.3792 45.1029H28.5779C28.0559 49.6044 24.252 53 19.7302 53C15.2075 53 11.4036 49.6044 10.8816 45.1029H1.48431C0.664452 45.1029 0 44.4371 0 43.6156V1.48776C0 0.666253 0.664452 0 1.48431 0H52.9998C53.8187 0 54.4837 0.666253 54.4837 1.48776V9.83248H67.0589C67.5442 9.83388 67.9988 10.0721 68.2761 10.4726L76.3966 22.1197L79.5732 26.5825L80.7314 28.2339C80.9049 28.4824 80.9984 28.778 80.9994 29.0816V43.5713C81.011 43.9704 80.8616 44.3578 80.5853 44.646C80.3089 44.9346 79.9278 45.0991 79.529 45.1029ZM66.2572 49.5652C69.5362 49.5652 72.1954 46.9011 72.1954 43.6156C72.1954 40.3291 69.5362 37.665 66.2572 37.665C62.9773 37.665 60.3185 40.3291 60.3185 43.6156C60.3185 46.9137 62.9652 49.5993 66.2572 49.6398V49.5652ZM19.76 49.5652C23.0394 49.5652 25.6986 46.9011 25.6986 43.6156C25.6986 40.3291 23.0394 37.665 19.76 37.665C16.4796 37.665 13.8213 40.3291 13.8213 43.6156C13.8209 46.9137 16.468 49.5993 19.76 49.6398V49.5652ZM2.99887 2.97506V29.6327H43.3052C44.1251 29.6327 44.79 30.2984 44.79 31.1199C44.79 31.9415 44.1251 32.6077 43.3052 32.6077H2.99887V42.1278H10.9109C11.4329 37.6268 15.2373 34.2316 19.76 34.2316C24.2818 34.2316 28.0861 37.6268 28.6077 42.1278H51.515V9.74343H40.7968C39.9769 9.74343 39.312 9.07718 39.312 8.25567C39.312 7.43415 39.9769 6.7679 40.7968 6.7679H51.515V2.97506H2.99887ZM66.2865 12.808H54.4101V42.1278H57.3792C57.9004 37.6268 61.7047 34.2316 66.2274 34.2316C70.7492 34.2316 74.5545 37.6268 75.0751 42.1278H78.0447V29.5576L77.5994 28.9179H59.487C58.6672 28.9179 58.0027 28.2526 58.0027 27.4311V16.4232C58.0027 15.6017 58.6672 14.9354 59.487 14.9354H67.8011L66.2865 12.808ZM69.8791 17.9403H60.9718V25.9727H75.5358L69.8791 17.9403Z" fill="#1C97D9"/>
</svg>
