<svg width="82" height="83" viewBox="0 0 82 83" fill="none" xmlns="http://www.w3.org/2000/svg">
<path d="M11.958 14.077C9.1275 14.077 6.83293 16.3716 6.83293 19.202V32.8687H10.2496V19.202C10.2496 18.2586 11.0145 17.4936 11.958 17.4936H52.9581V14.077H11.958Z" fill="#1C97D9"/>
<path d="M11.958 65.3273C11.0145 65.3273 10.2496 64.5623 10.2496 63.6189V46.5354H6.83293V63.6189C6.83293 66.4493 9.1275 68.7439 11.958 68.7439H29.0414V65.3273H11.958Z" fill="#1C97D9"/>
<path d="M54.166 69.733L12.6772 28.2442C12.0102 27.5773 10.9288 27.5773 10.2616 28.2442L0.50017 38.0057C-0.166723 38.6728 -0.166723 39.7542 0.50017 40.4214L41.989 81.91C42.3093 82.2305 42.7438 82.4105 43.1967 82.4105C43.6498 82.4104 44.0841 82.2303 44.4045 81.91L54.1659 72.1486C54.8329 71.4814 54.8329 70.4 54.166 69.733ZM43.1967 78.2866L4.12356 39.2135L11.4695 31.8676L50.5426 70.9409L43.1967 78.2866Z" fill="#1C97D9"/>
<path d="M75.1666 65.3272H49.5415V68.7439H68.3332V77.2855C68.3332 78.229 69.0981 78.9939 70.0416 78.9939H75.1666C78.9405 78.9939 82 75.9346 82 72.1605C82 68.3866 78.9405 65.3272 75.1666 65.3272ZM75.1666 75.5773H71.75V68.7439H75.1666C77.0536 68.7439 78.5832 70.2735 78.5832 72.1605C78.5832 74.0476 77.0536 75.5773 75.1666 75.5773Z" fill="#1C97D9"/>
<path d="M75.1666 14.077H66.6249V17.4936H75.1666C77.0536 17.4936 78.5832 19.0233 78.5832 20.9103V72.1605H82L81.9998 20.9103C82 17.1363 78.9405 14.077 75.1666 14.077Z" fill="#1C97D9"/>
<path d="M31.2509 48.744L26.1255 53.8694L28.5413 56.2853L33.6668 51.1599L31.2509 48.744Z" fill="#1C97D9"/>
<path d="M24.4177 41.9106L19.2923 47.036L21.7082 49.4519L26.8336 44.3265L24.4177 41.9106Z" fill="#1C97D9"/>
<path d="M38.0806 55.5774L32.9551 60.7028L35.371 63.1187L40.4965 57.9933L38.0806 55.5774Z" fill="#1C97D9"/>
<path d="M44.917 62.4142L39.7915 67.5396L42.2074 69.9555L47.3329 64.8301L44.917 62.4142Z" fill="#1C97D9"/>
<path d="M17.5797 35.0772L12.4542 40.2026L14.8701 42.6185L19.9956 37.4931L17.5797 35.0772Z" fill="#1C97D9"/>
<path d="M73.6872 4.25059L71.3262 1.88971C69.3285 -0.0172744 66.1847 -0.0172744 64.187 1.88971L38.2101 27.8667C37.5432 28.5337 37.5432 29.6151 38.2101 30.2823L45.2946 37.3669C45.6141 37.6885 46.0491 37.8686 46.5023 37.8674C46.9554 37.8672 47.3898 37.6872 47.7101 37.3669L73.6872 11.3897L73.6896 11.3873C75.6597 9.41597 75.6586 6.22068 73.6872 4.25059ZM71.2733 8.97249L46.5023 33.7433L41.8335 29.0744L66.6044 4.3052C67.2495 3.68876 68.2656 3.68876 68.9107 4.3052L71.2733 6.66447L71.2741 6.66527C71.9109 7.30254 71.9106 8.33555 71.2733 8.97249Z" fill="#1C97D9"/>
<path d="M45.954 34.5395L38.5808 37.0013L41.0426 29.6161L37.7967 28.5347L34.2536 39.1623C34.1956 39.3365 34.1659 39.5189 34.1659 39.7025C34.1661 40.6459 34.9312 41.4107 35.8747 41.4104C36.0555 41.411 36.2353 41.3833 36.4077 41.3284L47.0352 37.7852L45.954 34.5395Z" fill="#1C97D9"/>
<path d="M61.8786 6.61144L59.4627 9.02734L66.5475 16.1121L68.9634 13.6962L61.8786 6.61144Z" fill="#1C97D9"/>
<path d="M61.4999 37.9938H35.8748L35.8747 41.4104L61.4999 41.4104V37.9938Z" fill="#1C97D9"/>
<path d="M68.3332 37.9938H64.9165V41.4104H68.3332V37.9938Z" fill="#1C97D9"/>
<path d="M75.1666 37.9938H71.75V41.4104H75.1666V37.9938Z" fill="#1C97D9"/>
</svg>
