<svg width="71" height="83" viewBox="0 0 71 83" fill="none" xmlns="http://www.w3.org/2000/svg">
<path d="M42.7389 25.6465C40.0743 25.6465 37.9062 27.7968 37.9062 30.44C37.9062 33.0825 40.0743 35.2328 42.7389 35.2328C45.4042 35.2328 47.5717 33.0825 47.5717 30.44C47.5717 27.7968 45.4042 25.6465 42.7389 25.6465ZM42.7389 32.0296C41.8545 32.0296 41.136 31.3164 41.136 30.4393C41.136 29.5629 41.8545 28.8497 42.7389 28.8497C43.6227 28.8497 44.3419 29.5629 44.3419 30.4393C44.3419 31.3164 43.6227 32.0296 42.7389 32.0296Z" fill="#1C97D9"/>
<path d="M8.27431 49.3353C9.1663 49.3353 9.88923 48.6177 9.88923 47.7331C9.88923 46.8485 9.1663 46.1315 8.27431 46.1315C7.38296 46.1315 6.6594 46.8491 6.6594 47.7331V47.7343C6.6594 48.6189 7.38296 49.3353 8.27431 49.3353Z" fill="#1C97D9"/>
<path d="M69.3851 0.435059H23.3593C22.4673 0.435059 21.7444 1.15201 21.7444 2.03662C21.7444 2.92123 22.4673 3.63818 23.3593 3.63818H26.14V7.08905C26.14 8.88268 27.6111 10.3416 29.4203 10.3416H29.7849L30.721 24.3215L4.07931 40.6581C4.06102 40.6687 4.04272 40.6806 4.0238 40.6918L3.91656 40.7575C3.91214 40.76 3.90836 40.7632 3.90394 40.7663C3.50147 41.0159 3.11604 41.2993 2.75521 41.6202C1.10812 43.0823 0.134118 45.0924 0.012999 47.2814C-0.109381 49.4698 0.635626 51.5743 2.10987 53.2072C2.24802 53.3611 2.39311 53.5062 2.54135 53.6482C2.5464 53.6532 2.55082 53.6589 2.55586 53.6639L25.1168 76.0426C25.1426 76.0676 25.1698 76.0907 25.1963 76.1139C26.2352 77.1061 27.6464 77.718 29.1995 77.718C31.8244 77.718 34.0442 75.9725 34.7451 73.5902H38.9773V80.8335C38.9773 81.7181 39.7002 82.4351 40.5922 82.4351H49.5102C50.4022 82.4351 51.1252 81.7181 51.1252 80.8335V67.5668C51.1252 64.7997 49.2339 62.4643 46.6665 61.7611V59.3325C46.6665 58.4479 45.9429 57.731 45.0515 57.731C44.1596 57.731 43.4366 58.4479 43.4366 59.3325V61.7611C40.8692 62.4643 38.9773 64.7997 38.9773 67.5668V70.3871H34.7451C34.5243 69.6382 34.1553 68.9519 33.6683 68.3632L21.1993 51.4067L23.4344 50.517C24.2626 50.188 24.6645 49.2558 24.3327 48.4344C24.0002 47.6136 23.0596 47.2157 22.232 47.5441L19.2356 48.7366L15.2361 43.2981C15.0002 42.9353 14.7352 42.5881 14.4388 42.2602C13.5386 41.2624 12.4308 40.5148 11.202 40.0556L30.9633 27.9381L31.1368 30.5275C31.1733 35.3153 34.1729 39.4143 38.4033 41.111L35.7216 42.1783C34.894 42.5074 34.4921 43.4401 34.8239 44.2609C35.0769 44.8866 35.6825 45.2663 36.3228 45.2663C36.5234 45.2663 36.7265 45.2294 36.924 45.1512L46.8589 41.1986C46.874 41.1923 46.8879 41.1848 46.9024 41.1786C51.1479 39.5538 54.1941 35.5237 54.3342 30.7809C54.3354 30.7715 54.3367 30.7634 54.3373 30.7546L55.6942 10.3416H56.0576C57.8662 10.3416 59.3379 8.88205 59.3379 7.08842V3.63818H69.3851C70.2771 3.63818 71 2.92123 71 2.03662C71 1.15201 70.2771 0.435059 69.3851 0.435059ZM42.2071 79.2319V73.5902H47.8953V79.2319H42.2071ZM42.2071 67.5668C42.2071 66.0115 43.4827 64.7459 45.0509 64.7459C46.6198 64.7459 47.8953 66.0115 47.8953 67.5668V70.3871H42.2071V67.5668ZM16.2108 50.0597L28.1895 66.3494C26.1053 66.7153 24.4046 68.1924 23.7327 70.1399L9.34861 55.8716C10.9919 55.6614 12.5324 54.9676 13.7934 53.8478C14.9567 52.8149 15.7818 51.5086 16.2108 50.0597ZM29.1995 74.5155C27.7946 74.5155 26.6522 73.3819 26.6522 71.9892C26.6522 70.596 27.7946 69.463 29.1995 69.463C30.6037 69.463 31.7461 70.596 31.7461 71.9892C31.7461 73.3819 30.6037 74.5155 29.1995 74.5155ZM8.26801 42.7307C8.36263 42.7307 8.45725 42.7332 8.55251 42.7382C9.89806 42.812 11.1339 43.4014 12.0328 44.3967C12.9317 45.3927 13.3859 46.6758 13.3115 48.0096C13.237 49.344 12.6428 50.5696 11.6391 51.4611C10.6355 52.3526 9.34167 52.8024 7.99612 52.7292C6.65056 52.6554 5.41477 52.0667 4.51584 51.0713C3.61692 50.0754 3.16335 48.7922 3.23716 47.4578C3.3116 46.124 3.90583 44.8978 4.90948 44.0063C5.1309 43.8099 5.36683 43.636 5.61348 43.4827H5.61475L5.68035 43.442C6.45879 42.9772 7.347 42.7307 8.26801 42.7307ZM42.7389 38.7449C38.1213 38.7449 34.3647 35.0188 34.3647 30.44C34.3647 25.8605 38.1213 22.135 42.7389 22.135C47.3566 22.135 51.1132 25.8605 51.1132 30.44C51.1132 35.0188 47.3566 38.7449 42.7389 38.7449ZM51.6134 23.0359C49.4831 20.5284 46.2962 18.9319 42.7389 18.9319C39.1855 18.9319 36.0017 20.5253 33.8714 23.0284L33.0217 10.3416H52.4568L51.6134 23.0359ZM56.1081 7.08905C56.1081 7.1122 56.0816 7.13847 56.0576 7.13847H29.4203C29.3963 7.13847 29.3698 7.11282 29.3698 7.08905V3.63818H56.1081V7.08905Z" fill="#1C97D9"/>
<path d="M16.0928 3.63818C16.9848 3.63818 17.7077 2.92123 17.7077 2.03662C17.7077 1.15201 16.9848 0.435059 16.0928 0.435059H16.0915C15.1995 0.435059 14.4772 1.15201 14.4772 2.03662C14.4772 2.92123 15.2008 3.63818 16.0928 3.63818Z" fill="#1C97D9"/>
<path d="M28.9421 44.8753L28.9408 44.8759C28.1214 45.2244 27.7423 46.1653 28.0936 46.9786C28.3561 47.5861 28.9522 47.9495 29.5786 47.9495C29.7912 47.9495 30.0069 47.9076 30.2145 47.8194C31.0346 47.4709 31.4143 46.5294 31.063 45.7167C30.7116 44.9034 29.7622 44.5268 28.9421 44.8753Z" fill="#1C97D9"/>
<path d="M55.2741 51.63L54.4894 52.0792C53.7172 52.5215 53.4523 53.5006 53.8983 54.267C54.1973 54.7806 54.7398 55.0684 55.2981 55.0684C55.5718 55.0684 55.8494 54.9989 56.1036 54.8531L56.8884 54.404C57.6612 53.9623 57.9261 52.9826 57.4801 52.2168C57.0341 51.4505 56.0462 51.1877 55.2741 51.63Z" fill="#1C97D9"/>
<path d="M63.7726 46.764L60.896 48.4106C60.1233 48.8529 59.859 49.8326 60.305 50.5984C60.604 51.1126 61.1465 51.3998 61.7048 51.3998C61.9792 51.3998 62.2567 51.3303 62.511 51.1846L65.3875 49.538C66.1597 49.0957 66.4246 48.116 65.9786 47.3502C65.5326 46.5845 64.5454 46.3217 63.7726 46.764Z" fill="#1C97D9"/>
<path d="M64.3706 59.3325C64.3706 58.4479 63.6477 57.731 62.7557 57.731H59.4344C58.5431 57.731 57.8195 58.4479 57.8195 59.3325C57.8195 60.2171 58.5431 60.9341 59.4344 60.9341H62.7557C63.6477 60.9341 64.3706 60.2171 64.3706 59.3325Z" fill="#1C97D9"/>
<path d="M54.5575 59.3325C54.5575 58.4479 53.8346 57.731 52.9426 57.731H52.0373C51.1453 57.731 50.4224 58.4479 50.4224 59.3325C50.4224 60.2171 51.1453 60.9341 52.0373 60.9341H52.9426C53.8346 60.9341 54.5575 60.2171 54.5575 59.3325Z" fill="#1C97D9"/>
<path d="M65.3875 69.1271L62.511 67.4805C61.7388 67.0375 60.7509 67.3003 60.305 68.066C59.859 68.8324 60.1233 69.8115 60.896 70.2538L63.7726 71.901C64.0268 72.0468 64.3044 72.1162 64.5782 72.1162C65.1365 72.1162 65.679 71.8285 65.9786 71.3148C66.4246 70.5491 66.1597 69.5694 65.3875 69.1271Z" fill="#1C97D9"/>
<path d="M56.8884 64.2611L56.1043 63.8119C55.3315 63.3696 54.3436 63.6323 53.8983 64.3981C53.4523 65.1638 53.7172 66.1435 54.4894 66.5858L55.2741 67.035C55.5283 67.1808 55.8059 67.2496 56.0797 67.2496C56.638 67.2496 57.1805 66.9625 57.4795 66.4488C57.9261 65.6825 57.6612 64.7034 56.8884 64.2611Z" fill="#1C97D9"/>
</svg>
