<svg width="33" height="40" viewBox="0 0 33 40" fill="none" xmlns="http://www.w3.org/2000/svg">
<path d="M30.1687 0H8.2401C6.67909 0 5.40875 1.28035 5.40875 2.85275V4.67463H2.83126C1.27026 4.67463 0 5.95499 0 7.52738V37.1473C0 38.7196 1.27026 40 2.83126 40H24.7606C26.3216 40 27.5919 38.7196 27.5919 37.1473V35.3254H30.1687C31.7299 35.3254 33 34.045 33 32.4727V2.85275C33 1.28035 31.7299 0 30.1687 0ZM25.327 37.1473C25.327 37.4615 25.0724 37.7179 24.7606 37.7179H2.83126C2.51952 37.7179 2.26493 37.4614 2.26493 37.1473V7.52738C2.26493 7.21287 2.51952 6.95677 2.83126 6.95677H5.40875V32.4726C5.40875 34.0449 6.67909 35.3253 8.2401 35.3253H25.327V37.1473ZM30.7351 32.4727C30.7351 32.7869 30.4811 33.0433 30.1687 33.0433H8.2401C7.92762 33.0433 7.67385 32.7869 7.67385 32.4727V2.85275C7.67385 2.53832 7.9277 2.28213 8.2401 2.28213H30.1686C30.4811 2.28213 30.735 2.5384 30.735 2.85275L30.7351 32.4727Z" fill="#333333"/>
<path d="M27.5094 7.08713H10.8994C10.274 7.08713 9.76683 7.59851 9.76683 8.22811C9.76683 8.85896 10.274 9.36926 10.8994 9.36926H27.5093C28.1348 9.36926 28.6418 8.85887 28.6418 8.22811C28.6419 7.59859 28.1348 7.08713 27.5094 7.08713Z" fill="#333333"/>
<path d="M27.5094 12.5184H10.8994C10.274 12.5184 9.76683 13.0296 9.76683 13.6594C9.76683 14.2901 10.274 14.8006 10.8994 14.8006H27.5093C28.1348 14.8006 28.6418 14.29 28.6418 13.6594C28.6419 13.0297 28.1348 12.5184 27.5094 12.5184Z" fill="#333333"/>
<path d="M27.5094 17.9496H10.8994C10.274 17.9496 9.76683 18.461 9.76683 19.0908C9.76683 19.7214 10.274 20.2318 10.8994 20.2318H27.5093C28.1348 20.2318 28.6418 19.7214 28.6418 19.0908C28.6419 18.461 28.1348 17.9496 27.5094 17.9496Z" fill="#333333"/>
<path d="M27.5094 23.3809H10.8994C10.274 23.3809 9.76683 23.8924 9.76683 24.5219C9.76683 25.1529 10.274 25.6631 10.8994 25.6631H27.5093C28.1348 25.6631 28.6418 25.1528 28.6418 24.5219C28.6419 23.8924 28.1348 23.3809 27.5094 23.3809Z" fill="#333333"/>
</svg>
