<svg width="171" height="33" viewBox="0 0 171 33" fill="none" xmlns="http://www.w3.org/2000/svg">
<path d="M17.0625 5.60986L9.95373 12.7187C9.28157 13.3908 8.74839 14.1888 8.38462 15.067C8.02085 15.9452 7.83362 16.8864 7.83362 17.837C7.83362 18.7875 8.02085 19.7288 8.38462 20.607C8.74839 21.4852 9.28157 22.2831 9.95373 22.9553L17.0625 30.0641L24.1712 22.9553C24.8434 22.2831 25.3766 21.4852 25.7404 20.607C26.1041 19.7288 26.2913 18.7875 26.2913 17.837C26.2913 16.8864 26.1041 15.9452 25.7404 15.067C25.3766 14.1888 24.8434 13.3908 24.1712 12.7187L17.0625 5.60986ZM21.2075 19.9916L17.0625 24.1366L12.9175 19.9916C12.3469 19.4197 12.0264 18.6448 12.0264 17.837C12.0264 17.0292 12.3469 16.2543 12.9175 15.6824L17.0625 11.5374L21.2075 15.6824C21.7781 16.2543 22.0985 17.0292 22.0985 17.837C22.0985 18.6448 21.7781 19.4197 21.2075 19.9916Z" fill="#3A94D5"/>
<path d="M14.5062 0.113037C11.5133 0.570969 8.69503 1.81341 6.33812 3.714C5.87872 6.56942 5.93781 9.38604 6.82561 10.7282C9.14636 6.08684 11.0882 2.96063 14.5062 0.113037Z" fill="#65B2E8"/>
<path d="M6.33812 3.71393C5.87872 6.56935 5.9378 9.38597 6.82565 10.7281C9.14634 6.08676 11.0882 2.96058 14.5062 0.113037C11.5133 0.570927 8.69503 1.81335 6.33812 3.71393Z" fill="url(#paint0_linear)"/>
<path d="M31.5218 7.92409C27.163 0.349355 18.6941 0 18.6941 0C18.0917 0.652974 17.6416 1.43149 17.3763 2.27943C17.1111 3.12737 17.0372 4.02361 17.1602 4.90351L17.4645 5.20776L24.5732 12.3165C25.3004 13.0398 25.877 13.9001 26.2695 14.8477C26.662 15.7953 26.8627 16.8113 26.8599 17.837C26.8599 17.9422 26.8488 18.0454 26.8447 18.1498C28.0896 19.6622 28.8931 20.8077 28.8931 20.8077C30.8122 19.1876 34.2963 12.7458 31.5218 7.92409Z" fill="url(#paint1_linear)"/>
<path d="M25.2475 14.1062C24.2422 14.7093 22.7493 15.586 22.7493 15.586C21.5456 14.327 20.7524 12.7322 20.4745 11.0127C20.4745 11.0127 18.964 12.4596 18.4634 12.9386L21.2073 15.6826C21.7779 16.2544 22.0983 17.0293 22.0983 17.8371C22.0983 18.645 21.7779 19.4198 21.2073 19.9917L17.0623 24.1367L12.9173 19.9917C12.3467 19.4198 12.0262 18.645 12.0262 17.8371C12.0262 17.0293 12.3467 16.2544 12.9173 15.6826L15.3899 13.2099C15.0712 12.7364 13.9581 11.0127 13.9581 11.0127C13.2522 12.7321 12.1476 14.2591 10.7354 15.4675L9.33153 13.4386C8.2636 14.8306 7.73791 16.5633 7.85232 18.314C7.96674 20.0648 8.71346 21.7143 9.95348 22.9555L17.0623 30.0643L24.1711 22.9555C25.3128 21.8124 26.0391 20.3201 26.2341 18.7163C26.4292 17.1125 26.0819 15.4896 25.2475 14.1062Z" fill="#006DB1"/>
<path d="M5.35212 4.57617C3.60276 6.21497 2.22159 8.20678 1.30011 10.4197C0.378632 12.6325 -0.0621228 15.0159 0.00704595 17.412C0.00704595 25.3738 6.93266 32.9056 12.6197 32.9056C16.6006 32.9056 17.233 27.4027 14.7875 21.5335C11.9439 14.7091 3.97627 15.1476 5.35212 4.57617Z" fill="url(#paint2_radial)"/>
<path d="M18.1917 30.2417C18.729 33.6114 24.1543 34.0528 29.5331 28.6264C34.485 23.6305 34.6273 16.19 33.5505 12.585C32.5746 18.1923 30.8587 20.2484 28.4363 22.6708C24.977 26.1301 17.3529 24.9812 18.1917 30.2417Z" fill="url(#paint3_radial)"/>
<path d="M58.3724 16.117H55.38V6.01434H50.9211V16.117H47.9287V3.70394H58.3724V16.117Z" fill="white"/>
<path d="M68.1474 11.5729C68.1474 13.0052 67.8234 14.1505 67.1755 15.0087C66.5332 15.8612 65.6636 16.2875 64.5667 16.2875C63.7198 16.2875 63.0236 15.9778 62.4779 15.3582V19.6636H59.6048V6.89246H62.2904L62.3756 7.74501C62.9269 7.06297 63.6516 6.72195 64.5496 6.72195C65.6863 6.72195 66.5701 7.14254 67.201 7.98372C67.8319 8.81921 68.1474 9.97015 68.1474 11.4365V11.5729ZM65.2743 11.3939C65.2743 9.75701 64.7968 8.93857 63.842 8.93857C63.16 8.93857 62.7053 9.18297 62.4779 9.67176V13.3036C62.728 13.8151 63.1884 14.0709 63.859 14.0709C64.7741 14.0709 65.2459 13.2809 65.2743 11.7008V11.3939Z" fill="white"/>
<path d="M68.5358 11.4195C68.5358 10.4987 68.7148 9.68029 69.0729 8.96415C69.4309 8.24232 69.9453 7.68817 70.616 7.30168C71.2867 6.91519 72.0738 6.72195 72.9775 6.72195C74.3587 6.72195 75.4471 7.15107 76.2428 8.00929C77.0385 8.86184 77.4364 10.0241 77.4364 11.4962V11.5985C77.4364 13.0365 77.0357 14.1789 76.2343 15.0257C75.4386 15.8669 74.3587 16.2875 72.9946 16.2875C71.6817 16.2875 70.6274 15.8953 69.8316 15.111C69.0359 14.321 68.6068 13.2525 68.5443 11.9054L68.5358 11.4195ZM71.4089 11.5985C71.4089 12.4511 71.5424 13.0763 71.8096 13.4741C72.0767 13.872 72.4717 14.0709 72.9946 14.0709C74.0176 14.0709 74.5405 13.2837 74.5633 11.7093V11.4195C74.5633 9.76554 74.0347 8.93857 72.9775 8.93857C72.017 8.93857 71.497 9.65187 71.4174 11.0785L71.4089 11.5985Z" fill="white"/>
<path d="M83.9546 12.9455L86.0433 6.89246H89.6581V16.117H86.7765V11.0017L84.918 16.117H83.0083L81.252 11.2745V16.117H78.3704V6.89246H81.8999L83.9546 12.9455Z" fill="white"/>
<path d="M94.4883 8.93857C93.7153 8.93857 93.3288 9.35063 93.3288 10.1748H90.6348C90.6348 9.16876 90.99 8.34179 91.7005 7.69385C92.4166 7.04592 93.3459 6.72195 94.4883 6.72195C95.8353 6.72195 96.901 7.14254 97.6853 7.98372C98.4754 8.8249 98.8704 9.99289 98.8704 11.4877V11.607C98.8704 13.0393 98.4782 14.1789 97.6939 15.0257C96.9095 15.8669 95.8467 16.2875 94.5053 16.2875C93.3232 16.2875 92.3825 15.9607 91.6834 15.3071C90.9843 14.6478 90.6348 13.7412 90.6348 12.5875H93.3288C93.3288 13.0478 93.4283 13.4116 93.6272 13.6787C93.8318 13.9402 94.1245 14.0709 94.5053 14.0709C95.3636 14.0709 95.8467 13.4713 95.9547 12.272H93.9256V10.7119H95.9547C95.8524 9.52967 95.3636 8.93857 94.4883 8.93857Z" fill="white"/>
<path d="M103.368 12.8944H102.507V16.117H99.6254V6.89246H102.507V10.2089H103.334L104.8 6.89246H108.483L105.789 11.1552H105.798L108.756 16.117H104.86L103.368 12.8944Z" fill="white"/>
<path d="M112.683 14.0709C113.086 14.0709 113.399 13.9629 113.62 13.7469C113.842 13.5253 113.95 13.2184 113.944 12.8262H116.638C116.638 13.8379 116.275 14.6677 115.547 15.3156C114.825 15.9636 113.893 16.2875 112.751 16.2875C111.41 16.2875 110.352 15.8669 109.579 15.0257C108.806 14.1846 108.42 13.0194 108.42 11.5303V11.411C108.42 10.4788 108.59 9.65755 108.931 8.9471C109.278 8.23096 109.775 7.68249 110.423 7.30168C111.071 6.91519 111.839 6.72195 112.725 6.72195C113.925 6.72195 114.877 7.05444 115.581 7.71943C116.286 8.38442 116.638 9.28527 116.638 10.422H113.944C113.944 9.94457 113.828 9.57798 113.595 9.32222C113.362 9.06645 113.049 8.93857 112.657 8.93857C111.913 8.93857 111.478 9.41315 111.353 10.3623C111.313 10.6636 111.293 11.0785 111.293 11.607C111.293 12.5335 111.404 13.1757 111.625 13.5338C111.847 13.8919 112.2 14.0709 112.683 14.0709Z" fill="white"/>
<path d="M125.578 16.117H122.688V9.10908H120.147V16.117H117.274V6.89246H125.578V16.117Z" fill="white"/>
<path d="M126.231 11.4195C126.231 10.4987 126.41 9.68029 126.768 8.96415C127.126 8.24232 127.64 7.68817 128.311 7.30168C128.982 6.91519 129.769 6.72195 130.672 6.72195C132.054 6.72195 133.142 7.15107 133.938 8.00929C134.733 8.86184 135.131 10.0241 135.131 11.4962V11.5985C135.131 13.0365 134.731 14.1789 133.929 15.0257C133.133 15.8669 132.054 16.2875 130.689 16.2875C129.377 16.2875 128.322 15.8953 127.527 15.111C126.731 14.321 126.302 13.2525 126.239 11.9054L126.231 11.4195ZM129.104 11.5985C129.104 12.4511 129.237 13.0763 129.504 13.4741C129.772 13.872 130.167 14.0709 130.689 14.0709C131.713 14.0709 132.235 13.2837 132.258 11.7093V11.4195C132.258 9.76554 131.73 8.93857 130.672 8.93857C129.712 8.93857 129.192 9.65187 129.112 11.0785L129.104 11.5985Z" fill="white"/>
<path d="M144.437 11.5729C144.437 13.0052 144.113 14.1505 143.465 15.0087C142.823 15.8612 141.954 16.2875 140.857 16.2875C140.01 16.2875 139.313 15.9778 138.768 15.3582V19.6636H135.895V6.89246H138.58L138.666 7.74501C139.217 7.06297 139.942 6.72195 140.84 6.72195C141.976 6.72195 142.86 7.14254 143.491 7.98372C144.122 8.81921 144.437 9.97015 144.437 11.4365V11.5729ZM141.564 11.3939C141.564 9.75701 141.087 8.93857 140.132 8.93857C139.45 8.93857 138.995 9.18297 138.768 9.67176V13.3036C139.018 13.8151 139.478 14.0709 140.149 14.0709C141.064 14.0709 141.536 13.2809 141.564 11.7008V11.3939Z" fill="white"/>
<path d="M152.908 9.09203H150.001V16.117H147.111V9.09203H144.246V6.89246H152.908V9.09203Z" fill="white"/>
<path d="M159.077 11.8799H153.953V9.65471H159.077V11.8799Z" fill="white"/>
<path d="M170.974 11.914C170.935 12.7779 170.701 13.5423 170.275 14.2073C169.849 14.8666 169.249 15.3781 168.476 15.7419C167.709 16.1056 166.831 16.2875 165.842 16.2875C164.211 16.2875 162.926 15.7561 161.988 14.6933C161.051 13.6304 160.582 12.1299 160.582 10.1918V9.57798C160.582 8.36168 160.792 7.29884 161.213 6.38946C161.639 5.47439 162.25 4.76962 163.046 4.27514C163.841 3.77498 164.762 3.5249 165.808 3.5249C167.314 3.5249 168.525 3.92276 169.44 4.71847C170.355 5.50849 170.875 6.59975 171 7.99224H168.016C167.993 7.23632 167.803 6.69353 167.445 6.36388C167.087 6.03423 166.541 5.8694 165.808 5.8694C165.063 5.8694 164.518 6.1479 164.171 6.7049C163.824 7.2619 163.642 8.15139 163.625 9.37337V10.2515C163.625 11.5758 163.79 12.5221 164.12 13.0905C164.455 13.6588 165.029 13.943 165.842 13.943C166.53 13.943 167.055 13.781 167.419 13.4571C167.783 13.1331 167.976 12.6187 167.999 11.914H170.974Z" fill="white"/>
<path d="M52.5292 29.3754H51.9029V28.2048H48.4764V29.3787H47.8468L47.8435 27.69H48.2337C48.4392 27.4583 48.6021 27.1479 48.7223 26.7588C48.8447 26.3675 48.9212 25.939 48.9518 25.4734L49.0567 23.4306H51.9128V27.69H52.5358L52.5292 29.3754ZM48.9518 27.69H51.2799V23.9487H49.6634L49.5945 25.3521C49.5661 25.9008 49.4929 26.3686 49.3748 26.7555C49.259 27.1424 49.118 27.4539 48.9518 27.69Z" fill="white"/>
<path d="M58.131 25.998H56.0619V27.69H58.4654V28.2048H55.4323V23.4306H58.4327V23.9487H56.0619V25.4832H58.131V25.998Z" fill="white"/>
<path d="M65.0083 23.4306V28.2048H64.3787V23.9487H62.6671L62.5818 25.8407C62.549 26.4746 62.4834 26.9511 62.3851 27.2703C62.2889 27.5895 62.1468 27.8245 61.9588 27.9753C61.7708 28.1239 61.5194 28.2005 61.2046 28.2048H60.998V27.69L61.1292 27.6835C61.3325 27.6682 61.4888 27.6026 61.5981 27.4867C61.7074 27.3687 61.7905 27.1818 61.8473 26.926C61.9041 26.6702 61.9446 26.2768 61.9686 25.7456L62.067 23.4306H65.0083Z" fill="white"/>
<path d="M70.997 26.9588H68.9967L68.5475 28.2048H67.8983L69.7214 23.4306H70.2723L72.0987 28.2048H71.4527L70.997 26.9588ZM69.1869 26.4407H70.81L69.9968 24.2077L69.1869 26.4407Z" fill="white"/>
<path d="M77.589 25.998H75.5199V27.69H77.9234V28.2048H74.8903V23.4306H77.8906V23.9487H75.5199V25.4832H77.589V25.998Z" fill="white"/>
<path d="M81.6693 23.4306L83.2301 27.3261L84.7909 23.4306H85.6074V28.2048H84.9778V26.3456L85.0368 24.3389L83.4694 28.2048H82.9874L81.4233 24.3487L81.4856 26.3456V28.2048H80.8561V23.4306H81.6693Z" fill="white"/>
<path d="M95.6435 23.9487H93.3417V28.2048H92.7088V23.4306H95.6435V23.9487Z" fill="white"/>
<path d="M100.57 26.9588H98.5696L98.1204 28.2048H97.4711L99.2943 23.4306H99.8451L101.672 28.2048H101.026L100.57 26.9588ZM98.7598 26.4407H100.383L99.5697 24.2077L98.7598 26.4407Z" fill="white"/>
<path d="M106.913 24.7127C106.913 24.4591 106.82 24.258 106.634 24.1093C106.45 23.9585 106.191 23.8831 105.857 23.8831C105.577 23.8831 105.342 23.9607 105.152 24.1159C104.964 24.2689 104.87 24.4591 104.87 24.6864H104.24C104.24 24.4329 104.309 24.2055 104.447 24.0044C104.587 23.8033 104.781 23.647 105.03 23.5355C105.28 23.4218 105.555 23.365 105.857 23.365C106.39 23.365 106.804 23.4852 107.1 23.7257C107.395 23.964 107.542 24.2962 107.542 24.7225C107.542 24.9433 107.474 25.1444 107.339 25.3258C107.203 25.5073 107.014 25.6505 106.772 25.7554C107.333 25.9434 107.614 26.3161 107.614 26.8735C107.614 27.302 107.455 27.6419 107.136 27.8933C106.816 28.1447 106.39 28.2704 105.857 28.2704C105.54 28.2704 105.251 28.2147 104.991 28.1032C104.733 27.9895 104.532 27.8288 104.388 27.6212C104.243 27.4135 104.171 27.1665 104.171 26.8801H104.801C104.801 27.1315 104.9 27.3414 105.099 27.5097C105.298 27.6758 105.551 27.7589 105.857 27.7589C106.2 27.7589 106.473 27.6791 106.677 27.5195C106.882 27.3599 106.985 27.149 106.985 26.8867C106.985 26.327 106.638 26.0418 105.945 26.0308H105.355V25.5128H105.942C106.261 25.5062 106.503 25.4341 106.667 25.2963C106.831 25.1586 106.913 24.9641 106.913 24.7127Z" fill="white"/>
<path d="M118.71 29.3754H118.083V28.2048H114.657V29.3787H114.027L114.024 27.69H114.414C114.62 27.4583 114.782 27.1479 114.903 26.7588C115.025 26.3675 115.102 25.939 115.132 25.4734L115.237 23.4306H118.093V27.69H118.716L118.71 29.3754ZM115.132 27.69H117.46V23.9487H115.844L115.775 25.3521C115.746 25.9008 115.673 26.3686 115.555 26.7555C115.439 27.1424 115.298 27.4539 115.132 27.69Z" fill="white"/>
<path d="M125.207 25.9718C125.207 26.4396 125.128 26.8484 124.97 27.1982C124.813 27.5457 124.59 27.8113 124.302 27.995C124.013 28.1786 123.676 28.2704 123.292 28.2704C122.916 28.2704 122.582 28.1786 122.292 27.995C122.001 27.8092 121.775 27.5457 121.613 27.2047C121.453 26.8615 121.371 26.4648 121.367 26.0144V25.6701C121.367 25.2111 121.447 24.8056 121.606 24.4536C121.766 24.1017 121.991 23.8328 122.282 23.647C122.575 23.459 122.909 23.365 123.285 23.365C123.668 23.365 124.004 23.4579 124.295 23.6437C124.588 23.8273 124.813 24.0951 124.97 24.4471C125.128 24.7968 125.207 25.2045 125.207 25.6701V25.9718ZM124.58 25.6636C124.58 25.0974 124.467 24.6635 124.239 24.3618C124.012 24.058 123.694 23.906 123.285 23.906C122.887 23.906 122.574 24.058 122.344 24.3618C122.117 24.6635 122 25.0832 121.993 25.621V25.9718C121.993 26.5205 122.108 26.9522 122.337 27.267C122.569 27.5796 122.887 27.7359 123.292 27.7359C123.698 27.7359 124.013 27.5884 124.236 27.2933C124.459 26.996 124.574 26.5708 124.58 26.0177V25.6636Z" fill="white"/>
<path d="M131.812 26.6899C131.753 27.1949 131.566 27.5851 131.251 27.8605C130.938 28.1338 130.522 28.2704 130.002 28.2704C129.438 28.2704 128.985 28.0682 128.644 27.6638C128.305 27.2594 128.136 26.7183 128.136 26.0407V25.5816C128.136 25.1378 128.215 24.7476 128.372 24.411C128.532 24.0744 128.757 23.8164 129.047 23.6371C129.338 23.4557 129.675 23.365 130.057 23.365C130.565 23.365 130.971 23.5071 131.277 23.7913C131.583 24.0733 131.761 24.4646 131.812 24.9652H131.179C131.124 24.5848 131.005 24.3093 130.821 24.1388C130.64 23.9683 130.385 23.8831 130.057 23.8831C129.655 23.8831 129.339 24.0317 129.11 24.329C128.882 24.6263 128.769 25.0493 128.769 25.598V26.0603C128.769 26.5784 128.877 26.9905 129.093 27.2965C129.31 27.6026 129.613 27.7556 130.002 27.7556C130.351 27.7556 130.619 27.6769 130.805 27.5195C130.993 27.3599 131.118 27.0834 131.179 26.6899H131.812Z" fill="white"/>
<path d="M138.023 23.9487H136.489V28.2048H135.862V23.9487H134.331V23.4306H138.023V23.9487Z" fill="white"/>
<path d="M142.52 26.2013L143.619 23.4306H144.35L142.661 27.408C142.547 27.6616 142.441 27.842 142.343 27.9491C142.245 28.054 142.129 28.1349 141.995 28.1917C141.864 28.2464 141.699 28.2737 141.5 28.2737C141.328 28.2737 141.217 28.2639 141.169 28.2442L141.189 27.7458L141.487 27.7589C141.717 27.7589 141.887 27.6485 141.999 27.4277L142.081 27.2572L142.205 26.9654L140.579 23.4306H141.284L142.52 26.2013Z" fill="white"/>
<path d="M150.899 28.2048H150.266V23.9487H147.912V28.2048H147.282V23.4306H150.899V28.2048Z" fill="white"/>
<path d="M157.865 28.2048H157.232V25.998H154.825V28.2048H154.196V23.4306H154.825V25.4832H157.232V23.4306H157.865V28.2048Z" fill="white"/>
<path d="M163.831 25.998H161.762V27.69H164.165V28.2048H161.132V23.4306H164.132V23.9487H161.762V25.4832H163.831V25.998Z" fill="white"/>
<path d="M169.796 25.998H167.727V27.69H170.131V28.2048H167.098V23.4306H170.098V23.9487H167.727V25.4832H169.796V25.998Z" fill="white"/>
<defs>
<linearGradient id="paint0_linear" x1="4.97257" y1="8.67008" x2="14.4928" y2="0.0980528" gradientUnits="userSpaceOnUse">
<stop offset="0.2008" stop-color="#007CC3"/>
<stop offset="0.76908" stop-color="#589BD7"/>
</linearGradient>
<linearGradient id="paint1_linear" x1="16.6634" y1="2.39029" x2="32.9626" y2="16.0669" gradientUnits="userSpaceOnUse">
<stop offset="0.1245" stop-color="#1C97D9"/>
<stop offset="0.83936" stop-color="#8FC3EC"/>
</linearGradient>
<radialGradient id="paint2_radial" cx="0" cy="0" r="1" gradientUnits="userSpaceOnUse" gradientTransform="translate(3.42583 33.2428) scale(28.2613)">
<stop offset="0.1747" stop-color="#008ED3"/>
<stop offset="0.4257" stop-color="#1C97D9"/>
<stop offset="0.42635" stop-color="#1E98DA"/>
<stop offset="0.43429" stop-color="#38A1DF"/>
<stop offset="0.44303" stop-color="#4CA9E3"/>
<stop offset="0.45303" stop-color="#5AAEE6"/>
<stop offset="0.46523" stop-color="#63B1E7"/>
<stop offset="0.48594" stop-color="#65B2E8"/>
<stop offset="1" stop-color="#B1D9F5"/>
</radialGradient>
<radialGradient id="paint3_radial" cx="0" cy="0" r="1" gradientUnits="userSpaceOnUse" gradientTransform="translate(17.4701 14.4467) scale(22.8722)">
<stop offset="0.56024" stop-color="#C4DBF3"/>
<stop offset="0.71486" stop-color="#AFD1F0"/>
<stop offset="0.72387" stop-color="#A3CCEF"/>
<stop offset="0.73897" stop-color="#98C7ED"/>
<stop offset="0.76023" stop-color="#91C4EC"/>
<stop offset="0.81928" stop-color="#8FC3EC"/>
</radialGradient>
</defs>
</svg>
