<svg width="256" height="49" viewBox="0 0 256 49" fill="none" xmlns="http://www.w3.org/2000/svg">
<path d="M25.4078 8.35365L14.8221 18.9394C13.8212 19.9403 13.0272 21.1285 12.4855 22.4363C11.9438 23.744 11.665 25.1456 11.665 26.5611C11.665 27.9766 11.9438 29.3782 12.4855 30.6859C13.0272 31.9937 13.8212 33.1819 14.8221 34.1828L25.4078 44.7686L35.9935 34.1828C36.9944 33.1819 37.7884 31.9937 38.3301 30.6859C38.8717 29.3782 39.1506 27.9766 39.1506 26.5611C39.1506 25.1456 38.8717 23.744 38.3301 22.4363C37.7884 21.1285 36.9944 19.9403 35.9935 18.9394L25.4078 8.35365ZM31.5802 29.7695L25.4078 35.9419L19.2354 29.7695C18.3857 28.9179 17.9086 27.7641 17.9086 26.5611C17.9086 25.3582 18.3857 24.2043 19.2354 23.3528L25.4078 17.1804L31.5802 23.3528C32.4298 24.2043 32.907 25.3582 32.907 26.5611C32.907 27.7641 32.4298 28.9179 31.5802 29.7695Z" fill="#3A94D5"/>
<path d="M21.6012 0.168289C17.1445 0.850198 12.9478 2.70033 9.43813 5.5305C8.75403 9.78253 8.84202 13.9768 10.1641 15.9754C13.6199 9.06391 16.5115 4.40865 21.6012 0.168289Z" fill="#65B2E8"/>
<path d="M9.43801 5.53052C8.75391 9.78255 8.84189 13.9768 10.164 15.9754C13.6197 9.06391 16.5114 4.4087 21.6011 0.168411C17.1444 0.850257 12.9477 2.70036 9.43801 5.53052Z" fill="url(#paint0_linear)"/>
<path d="M46.9392 11.7998C40.4486 0.520227 27.8375 0 27.8375 0C26.9404 0.972348 26.2701 2.13165 25.8751 3.39432C25.4801 4.65699 25.3702 5.99157 25.5533 7.30185L26.0064 7.7549L36.5921 18.3406C37.675 19.4176 38.5336 20.6987 39.1181 22.1098C39.7026 23.5208 40.0014 25.0338 39.9972 26.5611C39.9972 26.7178 39.9807 26.8714 39.9745 27.027C41.8283 29.2791 43.0249 30.9848 43.0249 30.9848C45.8827 28.5724 51.0708 18.9798 46.9392 11.7998Z" fill="url(#paint1_linear)"/>
<path d="M37.5961 21.0054C36.0991 21.9034 33.8761 23.209 33.8761 23.209C32.0837 21.3341 30.9024 18.9594 30.4886 16.3988C30.4886 16.3988 28.2394 18.5534 27.4938 19.2667L31.5799 23.3528C32.4295 24.2043 32.9067 25.3582 32.9067 26.5611C32.9067 27.7641 32.4295 28.9179 31.5799 29.7695L25.4075 35.9419L19.2351 29.7695C18.3854 28.9179 17.9083 27.7641 17.9083 26.5611C17.9083 25.3582 18.3854 24.2043 19.2351 23.3528L22.9171 19.6707C22.4426 18.9656 20.785 16.3988 20.785 16.3988C19.7339 18.9593 18.089 21.2331 15.9861 23.0326L13.8956 20.0113C12.3053 22.0842 11.5225 24.6643 11.6929 27.2713C11.8632 29.8784 12.9752 32.3346 14.8217 34.1829L25.4074 44.7686L35.9933 34.1829C37.6934 32.4807 38.7748 30.2585 39.0653 27.8703C39.3558 25.4821 38.8386 23.0655 37.5961 21.0054Z" fill="#006DB1"/>
<path d="M7.96987 6.81447C5.36489 9.25481 3.30818 12.2208 1.936 15.516C0.563823 18.8112 -0.0925074 22.3604 0.0104922 25.9284C0.0104922 37.7844 10.3235 49 18.792 49C24.72 49 25.6617 40.8056 22.0201 32.0657C17.7858 21.9034 5.92109 22.5565 7.96987 6.81447Z" fill="url(#paint2_radial)"/>
<path d="M27.0893 45.0332C27.8894 50.051 35.9682 50.7084 43.9778 42.6279C51.3518 35.1885 51.5637 24.1088 49.9602 18.7405C48.507 27.0904 45.9519 30.1521 42.3446 33.7594C37.1934 38.9107 25.8402 37.1998 27.0893 45.0332Z" fill="url(#paint3_radial)"/>
<path d="M86.9229 24H82.4668V8.95605H75.8271V24H71.3711V5.51562H86.9229V24ZM101.479 17.2334C101.479 19.3662 100.996 21.0716 100.032 22.3496C99.0751 23.6191 97.7802 24.2539 96.1468 24.2539C94.8857 24.2539 93.8489 23.7926 93.0364 22.8701V29.2812H88.7581V10.2637H92.7571L92.8841 11.5332C93.705 10.5176 94.7841 10.0098 96.1214 10.0098C97.8141 10.0098 99.1302 10.6361 100.07 11.8887C101.009 13.1328 101.479 14.8467 101.479 17.0303V17.2334ZM97.2005 16.9668C97.2005 14.5293 96.4895 13.3105 95.0677 13.3105C94.052 13.3105 93.3749 13.6745 93.0364 14.4023V19.8105C93.4088 20.5723 94.0943 20.9531 95.093 20.9531C96.4557 20.9531 97.1582 19.7767 97.2005 17.4238V16.9668ZM102.057 17.0049C102.057 15.6338 102.324 14.415 102.857 13.3486C103.39 12.2738 104.156 11.4486 105.155 10.873C106.154 10.2975 107.326 10.0098 108.671 10.0098C110.728 10.0098 112.349 10.6488 113.534 11.9268C114.719 13.1963 115.311 14.9271 115.311 17.1191V17.2715C115.311 19.4128 114.714 21.1139 113.521 22.375C112.336 23.6276 110.728 24.2539 108.697 24.2539C106.742 24.2539 105.172 23.6699 103.987 22.502C102.802 21.3255 102.163 19.7344 102.07 17.7285L102.057 17.0049ZM106.336 17.2715C106.336 18.541 106.534 19.472 106.932 20.0645C107.33 20.6569 107.918 20.9531 108.697 20.9531C110.22 20.9531 110.999 19.7809 111.033 17.4365V17.0049C111.033 14.542 110.246 13.3105 108.671 13.3105C107.241 13.3105 106.467 14.3727 106.348 16.4971L106.336 17.2715ZM125.017 19.2773L128.128 10.2637H133.511V24H129.22V16.3828L126.452 24H123.608L120.993 16.7891V24H116.702V10.2637H121.958L125.017 19.2773ZM140.703 13.3105C139.552 13.3105 138.977 13.9242 138.977 15.1514H134.965C134.965 13.6533 135.494 12.4219 136.552 11.457C137.618 10.4922 139.002 10.0098 140.703 10.0098C142.709 10.0098 144.296 10.6361 145.464 11.8887C146.64 13.1413 147.229 14.8805 147.229 17.1064V17.2842C147.229 19.417 146.645 21.1139 145.477 22.375C144.309 23.6276 142.726 24.2539 140.729 24.2539C138.968 24.2539 137.567 23.7673 136.526 22.7939C135.485 21.8122 134.965 20.4622 134.965 18.7441H138.977C138.977 19.4297 139.125 19.9714 139.421 20.3691C139.726 20.7585 140.162 20.9531 140.729 20.9531C142.007 20.9531 142.726 20.0602 142.887 18.2744H139.865V15.9512H142.887C142.734 14.1908 142.007 13.3105 140.703 13.3105ZM153.926 19.2012H152.644V24H148.353V10.2637H152.644V15.2021H153.875L156.059 10.2637H161.543L157.532 16.6113H157.544L161.95 24H156.148L153.926 19.2012ZM167.797 20.9531C168.397 20.9531 168.863 20.7923 169.193 20.4707C169.523 20.1406 169.684 19.6836 169.675 19.0996H173.687C173.687 20.6061 173.146 21.8418 172.062 22.8066C170.987 23.7715 169.599 24.2539 167.898 24.2539C165.901 24.2539 164.327 23.6276 163.175 22.375C162.024 21.1224 161.449 19.3874 161.449 17.1699V16.9922C161.449 15.6042 161.703 14.3812 162.211 13.3232C162.727 12.2568 163.467 11.4401 164.432 10.873C165.397 10.2975 166.54 10.0098 167.86 10.0098C169.646 10.0098 171.063 10.5049 172.113 11.4951C173.162 12.4854 173.687 13.8268 173.687 15.5195H169.675C169.675 14.8086 169.502 14.2627 169.155 13.8818C168.808 13.501 168.342 13.3105 167.758 13.3105C166.65 13.3105 166.002 14.0173 165.816 15.4307C165.757 15.8792 165.727 16.4971 165.727 17.2842C165.727 18.6637 165.892 19.6201 166.222 20.1533C166.552 20.6865 167.077 20.9531 167.797 20.9531ZM186.999 24H182.695V13.5645H178.912V24H174.634V10.2637H186.999V24ZM187.971 17.0049C187.971 15.6338 188.238 14.415 188.771 13.3486C189.304 12.2738 190.07 11.4486 191.069 10.873C192.067 10.2975 193.239 10.0098 194.585 10.0098C196.642 10.0098 198.263 10.6488 199.448 11.9268C200.632 13.1963 201.225 14.9271 201.225 17.1191V17.2715C201.225 19.4128 200.628 21.1139 199.435 22.375C198.25 23.6276 196.642 24.2539 194.611 24.2539C192.656 24.2539 191.086 23.6699 189.901 22.502C188.716 21.3255 188.077 19.7344 187.984 17.7285L187.971 17.0049ZM192.249 17.2715C192.249 18.541 192.448 19.472 192.846 20.0645C193.244 20.6569 193.832 20.9531 194.611 20.9531C196.134 20.9531 196.913 19.7809 196.947 17.4365V17.0049C196.947 14.542 196.159 13.3105 194.585 13.3105C193.155 13.3105 192.38 14.3727 192.262 16.4971L192.249 17.2715ZM215.083 17.2334C215.083 19.3662 214.6 21.0716 213.635 22.3496C212.679 23.6191 211.384 24.2539 209.751 24.2539C208.489 24.2539 207.453 23.7926 206.64 22.8701V29.2812H202.362V10.2637H206.361L206.488 11.5332C207.309 10.5176 208.388 10.0098 209.725 10.0098C211.418 10.0098 212.734 10.6361 213.673 11.8887C214.613 13.1328 215.083 14.8467 215.083 17.0303V17.2334ZM210.804 16.9668C210.804 14.5293 210.093 13.3105 208.671 13.3105C207.656 13.3105 206.979 13.6745 206.64 14.4023V19.8105C207.013 20.5723 207.698 20.9531 208.697 20.9531C210.059 20.9531 210.762 19.7767 210.804 17.4238V16.9668ZM227.696 13.5391H223.367V24H219.063V13.5391H214.798V10.2637H227.696V13.5391ZM236.882 17.6904H229.252V14.377H236.882V17.6904ZM254.599 17.7412C254.54 19.0277 254.193 20.166 253.558 21.1562C252.923 22.138 252.03 22.8997 250.879 23.4414C249.737 23.9831 248.429 24.2539 246.956 24.2539C244.527 24.2539 242.615 23.4626 241.218 21.8799C239.822 20.2972 239.123 18.0628 239.123 15.1768V14.2627C239.123 12.4515 239.437 10.8688 240.063 9.51465C240.698 8.15202 241.607 7.10254 242.792 6.36621C243.977 5.62142 245.348 5.24902 246.906 5.24902C249.148 5.24902 250.951 5.84147 252.314 7.02637C253.676 8.2028 254.451 9.8278 254.637 11.9014H250.194C250.16 10.7757 249.876 9.96745 249.343 9.47656C248.81 8.98568 247.997 8.74023 246.906 8.74023C245.797 8.74023 244.984 9.15495 244.468 9.98438C243.952 10.8138 243.681 12.1383 243.656 13.958V15.2656C243.656 17.2376 243.901 18.6468 244.392 19.4932C244.891 20.3395 245.746 20.7627 246.956 20.7627C247.98 20.7627 248.763 20.5215 249.305 20.0391C249.847 19.5566 250.134 18.7907 250.168 17.7412H254.599Z" fill="#333333"/>
<path d="M78.2217 43.7432H77.2891V42H72.1865V43.748H71.249L71.2441 41.2334H71.8252C72.1312 40.8883 72.3737 40.4261 72.5527 39.8467C72.735 39.264 72.849 38.626 72.8945 37.9326L73.0508 34.8906H77.3037V41.2334H78.2314L78.2217 43.7432ZM72.8945 41.2334H76.3613V35.6621H73.9541L73.8516 37.752C73.8092 38.569 73.7002 39.2656 73.5244 39.8418C73.3519 40.418 73.1419 40.8818 72.8945 41.2334ZM86.5633 38.7139H83.4822V41.2334H87.0613V42H82.5447V34.8906H87.0125V35.6621H83.4822V37.9473H86.5633V38.7139ZM96.8043 34.8906V42H95.8668V35.6621H93.318L93.191 38.4795C93.1422 39.4235 93.0445 40.1331 92.898 40.6084C92.7548 41.0837 92.5432 41.4336 92.2633 41.6582C91.9833 41.8796 91.609 41.9935 91.1402 42H90.8326V41.2334L91.0279 41.2236C91.3307 41.2008 91.5634 41.1032 91.7262 40.9307C91.8889 40.7549 92.0126 40.4766 92.0973 40.0957C92.1819 39.7148 92.2421 39.1289 92.2779 38.3379L92.4244 34.8906H96.8043ZM105.722 40.1445H102.744L102.075 42H101.108L103.823 34.8906H104.643L107.363 42H106.401L105.722 40.1445ZM103.027 39.373H105.444L104.233 36.0479L103.027 39.373ZM115.538 38.7139H112.457V41.2334H116.036V42H111.52V34.8906H115.987V35.6621H112.457V37.9473H115.538V38.7139ZM121.614 34.8906L123.938 40.6914L126.263 34.8906H127.479V42H126.541V39.2314L126.629 36.2432L124.295 42H123.577L121.248 36.2578L121.341 39.2314V42H120.403V34.8906H121.614ZM142.423 35.6621H138.996V42H138.053V34.8906H142.423V35.6621ZM149.759 40.1445H146.781L146.112 42H145.145L147.86 34.8906H148.68L151.4 42H150.438L149.759 40.1445ZM147.064 39.373H149.481L148.27 36.0479L147.064 39.373ZM159.204 36.7998C159.204 36.4222 159.066 36.1227 158.789 35.9014C158.516 35.6768 158.13 35.5645 157.632 35.5645C157.215 35.5645 156.865 35.68 156.582 35.9111C156.302 36.139 156.162 36.4222 156.162 36.7607H155.225C155.225 36.3831 155.327 36.0446 155.532 35.7451C155.741 35.4456 156.03 35.2129 156.402 35.0469C156.773 34.8776 157.183 34.793 157.632 34.793C158.426 34.793 159.043 34.972 159.483 35.3301C159.922 35.6849 160.142 36.1797 160.142 36.8145C160.142 37.1432 160.041 37.4427 159.839 37.7129C159.637 37.9831 159.356 38.1963 158.994 38.3525C159.831 38.6325 160.249 39.1875 160.249 40.0176C160.249 40.6556 160.012 41.1618 159.536 41.5361C159.061 41.9105 158.426 42.0977 157.632 42.0977C157.16 42.0977 156.73 42.0146 156.343 41.8486C155.959 41.6794 155.659 41.4401 155.445 41.1309C155.23 40.8216 155.122 40.4538 155.122 40.0273H156.06C156.06 40.4017 156.208 40.7142 156.504 40.9648C156.8 41.2122 157.176 41.3359 157.632 41.3359C158.143 41.3359 158.55 41.2171 158.853 40.9795C159.159 40.7419 159.312 40.4277 159.312 40.0371C159.312 39.2038 158.796 38.779 157.764 38.7627H156.885V37.9912H157.759C158.234 37.9814 158.594 37.874 158.838 37.6689C159.082 37.4639 159.204 37.1742 159.204 36.7998ZM176.771 43.7432H175.839V42H170.736V43.748H169.799L169.794 41.2334H170.375C170.681 40.8883 170.923 40.4261 171.102 39.8467C171.285 39.264 171.399 38.626 171.444 37.9326L171.6 34.8906H175.853V41.2334H176.781L176.771 43.7432ZM171.444 41.2334H174.911V35.6621H172.504L172.401 37.752C172.359 38.569 172.25 39.2656 172.074 39.8418C171.901 40.418 171.692 40.8818 171.444 41.2334ZM186.446 38.6748C186.446 39.3714 186.329 39.9801 186.094 40.501C185.86 41.0186 185.528 41.4141 185.098 41.6875C184.669 41.9609 184.167 42.0977 183.594 42.0977C183.034 42.0977 182.538 41.9609 182.105 41.6875C181.672 41.4108 181.335 41.0186 181.094 40.5107C180.857 39.9997 180.735 39.4089 180.728 38.7383V38.2256C180.728 37.542 180.847 36.9382 181.085 36.4141C181.322 35.89 181.657 35.4896 182.09 35.2129C182.527 34.9329 183.025 34.793 183.585 34.793C184.154 34.793 184.656 34.9313 185.088 35.208C185.525 35.4814 185.86 35.8802 186.094 36.4043C186.329 36.9251 186.446 37.5322 186.446 38.2256V38.6748ZM185.513 38.2158C185.513 37.3727 185.344 36.7266 185.005 36.2773C184.667 35.8249 184.193 35.5986 183.585 35.5986C182.992 35.5986 182.525 35.8249 182.183 36.2773C181.845 36.7266 181.671 37.3516 181.661 38.1523V38.6748C181.661 39.4919 181.832 40.1348 182.173 40.6035C182.518 41.069 182.992 41.3018 183.594 41.3018C184.2 41.3018 184.669 41.082 185.001 40.6426C185.333 40.1999 185.504 39.5667 185.513 38.7432V38.2158ZM196.282 39.7441C196.194 40.4961 195.915 41.0771 195.447 41.4873C194.981 41.8942 194.361 42.0977 193.586 42.0977C192.746 42.0977 192.073 41.7965 191.565 41.1943C191.06 40.5921 190.808 39.7865 190.808 38.7773V38.0938C190.808 37.4329 190.925 36.8519 191.16 36.3506C191.397 35.8493 191.732 35.4652 192.165 35.1982C192.598 34.9281 193.1 34.793 193.669 34.793C194.425 34.793 195.03 35.0046 195.486 35.4277C195.941 35.8477 196.207 36.4303 196.282 37.1758H195.339C195.258 36.6094 195.08 36.1992 194.807 35.9453C194.537 35.6914 194.158 35.5645 193.669 35.5645C193.07 35.5645 192.6 35.7858 192.258 36.2285C191.92 36.6712 191.75 37.3011 191.75 38.1182V38.8066C191.75 39.5781 191.912 40.1917 192.234 40.6475C192.556 41.1032 193.007 41.3311 193.586 41.3311C194.107 41.3311 194.506 41.2139 194.783 40.9795C195.063 40.7419 195.248 40.3301 195.339 39.7441H196.282ZM205.531 35.6621H203.246V42H202.314V35.6621H200.033V34.8906H205.531V35.6621ZM212.228 39.0166L213.863 34.8906H214.952L212.438 40.8135C212.268 41.1911 212.11 41.4596 211.964 41.6191C211.817 41.7754 211.645 41.8958 211.446 41.9805C211.251 42.0618 211.005 42.1025 210.709 42.1025C210.452 42.1025 210.287 42.0879 210.216 42.0586L210.245 41.3164L210.689 41.3359C211.031 41.3359 211.285 41.1715 211.451 40.8428L211.573 40.5889L211.759 40.1543L209.337 34.8906H210.387L212.228 39.0166ZM224.705 42H223.762V35.6621H220.257V42H219.319V34.8906H224.705V42ZM235.078 42H234.135V38.7139H230.551V42H229.614V34.8906H230.551V37.9473H234.135V34.8906H235.078V42ZM243.961 38.7139H240.88V41.2334H244.459V42H239.943V34.8906H244.411V35.6621H240.88V37.9473H243.961V38.7139ZM252.845 38.7139H249.764V41.2334H253.343V42H248.826V34.8906H253.294V35.6621H249.764V37.9473H252.845V38.7139Z" fill="#333333"/>
<defs>
<linearGradient id="paint0_linear" x1="7.40455" y1="12.9107" x2="21.5811" y2="0.146099" gradientUnits="userSpaceOnUse">
<stop offset="0.2008" stop-color="#007CC3"/>
<stop offset="0.76908" stop-color="#589BD7"/>
</linearGradient>
<linearGradient id="paint1_linear" x1="24.8135" y1="3.55939" x2="49.0847" y2="23.9254" gradientUnits="userSpaceOnUse">
<stop offset="0.1245" stop-color="#1C97D9"/>
<stop offset="0.83936" stop-color="#8FC3EC"/>
</linearGradient>
<radialGradient id="paint2_radial" cx="0" cy="0" r="1" gradientUnits="userSpaceOnUse" gradientTransform="translate(5.10142 49.5021) scale(42.084)">
<stop offset="0.1747" stop-color="#008ED3"/>
<stop offset="0.4257" stop-color="#1C97D9"/>
<stop offset="0.42635" stop-color="#1E98DA"/>
<stop offset="0.43429" stop-color="#38A1DF"/>
<stop offset="0.44303" stop-color="#4CA9E3"/>
<stop offset="0.45303" stop-color="#5AAEE6"/>
<stop offset="0.46523" stop-color="#63B1E7"/>
<stop offset="0.48594" stop-color="#65B2E8"/>
<stop offset="1" stop-color="#B1D9F5"/>
</radialGradient>
<radialGradient id="paint3_radial" cx="0" cy="0" r="1" gradientUnits="userSpaceOnUse" gradientTransform="translate(26.0148 21.5128) scale(34.0591)">
<stop offset="0.56024" stop-color="#C4DBF3"/>
<stop offset="0.71486" stop-color="#AFD1F0"/>
<stop offset="0.72387" stop-color="#A3CCEF"/>
<stop offset="0.73897" stop-color="#98C7ED"/>
<stop offset="0.76023" stop-color="#91C4EC"/>
<stop offset="0.81928" stop-color="#8FC3EC"/>
</radialGradient>
</defs>
</svg>
